# xmcd
#
# Track frame offsets:
#	150
#	17220
#	34551
#	52672
#	68460
#	87651
#	107774
#	122766
#	138276
#	148978
#	170934
#	181546
#	198521
#	211966
#	222786
#	251003
#
# Disc length: 3906 seconds
#
# Revision: 0
# Processed by: cddbd v1.5.1PL0 Copyright (c) Steve Scherf et al.
# Submitted via: dBpowerAMP V4.0
#
DISCID=e60f4010
DTITLE=Various Artist - Balkanbeats
DYEAR=2005
DGENRE=Worldmusic
TTITLE0=MAGNIFICO and TURBOLENTZA: hir ai kam, hir ai go
TTITLE1=BESH O DROM: meggyújtom a pipám
TTITLE2=MAHALA RAÏ BANDA: colindat
TTITLE3=YUGOTON and KAZIK: malcziki
TTITLE4=LEGEN: zumba
TTITLE5=KULTUR SHOCK: blagunjo dejce
TTITLE6=LET 3: tazi-tazi
TTITLE7=KAYAH and BREGOVIC: prawy do lewego
TTITLE8=FRANK LONDON'S KLEZMER BRASS ALL STARS: tsu der kretshme
TTITLE9=KARANDILA feat. MAYA: djelem, djelem
TTITLE10=SSASSA: romanela
TTITLE11=SANJA and BALKANIKA: kermes
TTITLE12=BOBAN MARKOVIC ORKESTAR: od srca
TTITLE13=FANFARE CIOCARLIA: dusty road
TTITLE14=GEORGE DALARAS and GORAN BREGOVIC: night (nihta)
TTITLE15=DATA
EXTD=
EXTT0=
EXTT1=
EXTT2=
EXTT3=
EXTT4=
EXTT5=
EXTT6=
EXTT7=
EXTT8=
EXTT9=
EXTT10=
EXTT11=
EXTT12=
EXTT13=
EXTT14=
EXTT15=
PLAYORDER=
